<svg xmlns="http://www.w3.org/2000/svg" xmlns:xlink="http://www.w3.org/1999/xlink" width="500" zoomAndPan="magnify" viewBox="0 0 375 374.999991" height="500" preserveAspectRatio="xMidYMid meet" version="1.0"><defs><g/></defs><g fill="#ffffff" fill-opacity="1"><g transform="translate(57.30234, 188.078704)"><g><path d="M 6.492188 0.144531 L 8.867188 0.046875 L 9.738281 0.0976562 L 10.851562 0 L 11.871094 -0.386719 L 12.304688 -1.40625 L 12.257812 -2.375 L 12.304688 -3.441406 L 12.210938 -5.234375 L 12.304688 -6.152344 L 12.257812 -7.265625 L 12.695312 -8.140625 L 13.808594 -8.671875 L 14.875 -8.769531 L 15.890625 -8.574219 L 20.882812 -8.964844 L 25.484375 -10.804688 L 26.210938 -11.386719 L 26.890625 -12.160156 L 27.519531 -12.789062 L 28.148438 -13.515625 L 29.167969 -15.066406 L 29.992188 -16.957031 L 30.136719 -18.023438 L 30.425781 -18.796875 L 30.523438 -22.773438 L 30.328125 -23.59375 L 30.183594 -24.660156 L 29.601562 -26.453125 L 28.683594 -28.101562 L 27.519531 -29.699219 L 25.339844 -31.589844 L 23.742188 -32.65625 L 21.800781 -33.238281 L 20.980469 -33.574219 L 20.011719 -33.574219 L 19.039062 -33.914062 L 17.585938 -33.964844 L 16.035156 -33.914062 L 14.972656 -33.769531 L 12.015625 -33.816406 L 11.046875 -33.964844 L 8.042969 -33.769531 L 6.976562 -33.816406 L 6.105469 -33.964844 L 5.085938 -33.769531 L 4.070312 -33.238281 L 3.632812 -32.460938 L 3.683594 -26.597656 L 3.488281 -24.660156 L 3.585938 -23.742188 L 3.535156 -11.191406 L 3.632812 -10.269531 L 3.585938 -1.308594 L 4.117188 -0.386719 L 5.621094 0.0976562 Z M 13.761719 -16.425781 L 12.789062 -17.007812 L 12.355469 -17.828125 L 12.210938 -21.753906 L 12.304688 -22.773438 L 12.304688 -24.757812 L 12.789062 -25.679688 L 13.808594 -26.164062 L 18.847656 -26.019531 L 19.816406 -25.582031 L 20.589844 -25.046875 L 21.222656 -24.417969 L 21.707031 -23.449219 L 21.851562 -22.578125 L 21.949219 -21.222656 L 21.851562 -19.914062 L 21.511719 -19.039062 L 21.074219 -18.265625 L 20.445312 -17.492188 L 19.671875 -16.910156 L 18.894531 -16.667969 L 17.394531 -16.472656 L 14.921875 -16.519531 Z M 13.761719 -16.425781 "/></g></g></g><g fill="#ffffff" fill-opacity="1"><g transform="translate(89.179375, 188.078704)"><g><path d="M 3.632812 -1.40625 L 4.070312 -0.53125 L 5.621094 0.046875 L 22.773438 -0.046875 L 24.128906 -0.53125 L 24.660156 -1.40625 L 24.5625 -2.472656 L 24.613281 -3.441406 L 24.710938 -4.3125 L 24.5625 -5.378906 L 24.710938 -6.296875 L 24.078125 -7.363281 L 23.304688 -7.847656 L 22.238281 -7.703125 L 13.710938 -7.800781 L 12.695312 -8.238281 L 12.402344 -9.300781 L 12.453125 -11.09375 L 12.304688 -12.015625 L 12.355469 -13.082031 L 12.257812 -14.050781 L 12.355469 -15.066406 L 12.304688 -17.492188 L 12.453125 -18.847656 L 12.304688 -19.914062 L 12.453125 -20.929688 L 12.304688 -28.488281 L 12.402344 -29.554688 L 12.304688 -31.929688 L 11.820312 -33.382812 L 10.5625 -33.964844 L 5.523438 -33.867188 L 4.117188 -33.332031 L 3.488281 -32.027344 L 3.777344 -29.507812 L 3.683594 -28.585938 L 3.535156 -27.566406 L 3.683594 -26.597656 L 3.777344 -25.679688 L 3.632812 -24.613281 L 3.683594 -23.691406 L 3.585938 -22.722656 L 3.730469 -21.707031 L 3.585938 -20.832031 L 3.683594 -19.863281 L 3.535156 -18.945312 L 3.683594 -16.859375 L 3.535156 -15.941406 L 3.683594 -14.003906 L 3.535156 -13.03125 L 3.585938 -11.09375 L 3.683594 -10.222656 L 3.632812 -4.3125 L 3.730469 -3.34375 L 3.535156 -2.421875 Z M 3.632812 -1.40625 "/></g></g></g><g fill="#ffffff" fill-opacity="1"><g transform="translate(115.242972, 188.078704)"><g><path d="M 0.628906 -1.308594 L 0.871094 -0.289062 L 1.839844 -0.046875 L 6.105469 -0.046875 L 7.363281 0.0976562 L 8.480469 -0.386719 L 9.351562 -1.257812 L 10.175781 -2.90625 L 11 -3.828125 L 12.160156 -4.3125 L 13.128906 -4.214844 L 15.84375 -4.261719 L 16.859375 -4.117188 L 17.976562 -4.261719 L 18.847656 -4.261719 L 19.863281 -4.167969 L 22.140625 -4.261719 L 23.742188 -3.730469 L 24.757812 -2.957031 L 25 -2.082031 L 25.53125 -1.210938 L 26.355469 -0.4375 L 27.617188 0.046875 L 28.488281 -0.046875 L 30.183594 0.0976562 L 33.1875 0 L 34.058594 -0.289062 L 34.253906 -1.308594 L 33.964844 -2.519531 L 33.625 -3.390625 L 32.996094 -4.214844 L 32.703125 -5.183594 L 32.21875 -5.910156 L 31.929688 -6.832031 L 31.105469 -8.574219 L 30.765625 -9.496094 L 30.28125 -10.320312 L 29.601562 -12.113281 L 29.070312 -12.886719 L 28.683594 -13.855469 L 28.246094 -14.679688 L 27.90625 -15.648438 L 27.472656 -16.375 L 27.179688 -17.34375 L 26.648438 -18.21875 L 26.261719 -19.039062 L 25.777344 -19.863281 L 25.53125 -20.785156 L 24.5625 -22.480469 L 24.273438 -23.402344 L 23.402344 -25.242188 L 23.160156 -26.019531 L 22.433594 -27.714844 L 21.464844 -29.507812 L 20.6875 -31.347656 L 20.253906 -32.074219 L 19.960938 -32.996094 L 19.089844 -33.914062 L 17.441406 -34.351562 L 15.890625 -33.867188 L 14.972656 -32.996094 L 14.679688 -32.121094 L 12.597656 -27.761719 L 12.0625 -26.890625 L 9.351562 -20.785156 L 9.109375 -19.960938 L 8.574219 -19.089844 L 7.800781 -17.34375 L 7.074219 -16.085938 L 6.734375 -15.164062 L 6.054688 -13.90625 L 5.765625 -12.886719 L 5.328125 -12.113281 L 4.992188 -11.144531 L 3.632812 -8.625 L 2.230469 -5.085938 L 1.648438 -4.3125 L 1.210938 -3.34375 Z M 15.601562 -11.96875 L 14.679688 -12.355469 L 14.535156 -13.324219 L 16.472656 -17.734375 L 16.910156 -18.507812 L 17.539062 -18.992188 L 18.121094 -18.605469 L 18.75 -16.714844 L 19.28125 -15.890625 L 19.476562 -15.117188 L 19.960938 -14.148438 L 20.300781 -13.273438 L 20.203125 -12.402344 L 19.378906 -12.015625 Z M 15.601562 -11.96875 "/></g></g></g><g fill="#ffffff" fill-opacity="1"><g transform="translate(150.414292, 188.078704)"><g><path d="M 2.324219 -1.40625 L 2.808594 -0.386719 L 3.777344 -0.046875 L 18.167969 0.046875 L 19.089844 -0.4375 L 19.621094 -1.308594 L 19.621094 -2.375 L 19.523438 -3.246094 L 19.671875 -6.203125 L 18.992188 -7.023438 L 15.746094 -8.042969 L 15.214844 -9.011719 L 15.308594 -12.984375 L 15.117188 -14.921875 L 15.308594 -16.957031 L 15.214844 -18.410156 L 15.308594 -19.914062 L 15.214844 -20.832031 L 15.308594 -21.800781 L 15.214844 -22.820312 L 15.214844 -24.855469 L 15.746094 -25.726562 L 16.667969 -26.261719 L 17.734375 -26.308594 L 18.652344 -26.839844 L 19.1875 -27.761719 L 19.1875 -30.621094 L 19.28125 -31.492188 L 19.1875 -32.460938 L 18.796875 -33.429688 L 17.25 -33.867188 L 11.09375 -33.914062 L 10.027344 -33.816406 L 7.074219 -33.867188 L 6.152344 -33.816406 L 4.261719 -33.914062 L 3.199219 -33.429688 L 2.664062 -32.414062 L 2.664062 -31.492188 L 2.566406 -30.667969 L 2.566406 -29.601562 L 2.664062 -28.632812 L 2.664062 -27.714844 L 3.148438 -26.792969 L 6.105469 -25.777344 L 6.734375 -24.902344 L 6.589844 -20.785156 L 6.636719 -19.960938 L 6.78125 -18.847656 L 6.734375 -16.859375 L 6.636719 -15.890625 L 6.832031 -14.003906 L 6.589844 -13.03125 L 6.78125 -10.949219 L 6.6875 -9.058594 L 6.203125 -7.996094 L 3.003906 -6.976562 L 2.421875 -6.054688 L 2.324219 -5.136719 Z M 2.324219 -1.40625 "/></g></g></g><g fill="#ffffff" fill-opacity="1"><g transform="translate(172.408473, 188.078704)"><g><path d="M 28.585938 -0.773438 L 29.992188 -0.144531 L 31.25 0.242188 L 32.363281 -0.289062 L 32.800781 -1.308594 L 33.042969 -14.488281 L 32.847656 -15.84375 L 32.945312 -16.910156 L 32.753906 -22.722656 L 32.898438 -24.660156 L 32.800781 -25.582031 L 32.800781 -27.519531 L 32.996094 -28.488281 L 32.898438 -29.941406 L 32.996094 -32.460938 L 32.414062 -33.332031 L 31.347656 -33.816406 L 30.378906 -33.914062 L 29.457031 -33.914062 L 28.390625 -33.816406 L 27.375 -33.964844 L 26.503906 -33.867188 L 25.53125 -33.914062 L 24.371094 -33.429688 L 23.886719 -32.414062 L 23.835938 -23.59375 L 24.03125 -22.578125 L 24.03125 -21.65625 L 23.835938 -20.640625 L 23.886719 -18.703125 L 23.644531 -17.925781 L 22.964844 -18.121094 L 20.832031 -20.300781 L 20.105469 -20.882812 L 18.410156 -22.625 L 17.636719 -23.207031 L 17.101562 -23.886719 L 16.085938 -24.953125 L 14.582031 -26.210938 L 14.050781 -26.9375 L 13.128906 -27.566406 L 12.644531 -28.292969 L 11.820312 -28.875 L 11.191406 -29.699219 L 8.574219 -32.363281 L 6.636719 -33.671875 L 5.328125 -34.058594 L 4.167969 -33.480469 L 3.535156 -32.558594 L 3.632812 -25.777344 L 3.535156 -24.804688 L 3.683594 -22.820312 L 3.585938 -21.949219 L 3.632812 -20.929688 L 3.488281 -19.914062 L 3.683594 -12.984375 L 3.585938 -12.113281 L 3.585938 -11.191406 L 3.488281 -10.125 L 3.488281 -9.207031 L 3.632812 -8.1875 L 3.585938 -6.203125 L 3.683594 -5.234375 L 3.535156 -3.390625 L 3.683594 -2.421875 L 3.683594 -1.5 L 4.117188 -0.4375 L 5.039062 0.0976562 L 6.6875 0 L 9.109375 0.144531 L 10.125 0 L 11.242188 0.0976562 L 12.210938 -0.386719 L 12.644531 -1.355469 L 12.5 -2.324219 L 12.644531 -14.195312 L 12.453125 -15.214844 L 12.9375 -15.792969 L 13.566406 -15.648438 L 20.496094 -8.867188 L 21.269531 -8.238281 L 25.96875 -3.535156 L 26.597656 -2.761719 L 27.375 -2.132812 L 27.957031 -1.40625 Z M 28.585938 -0.773438 "/></g></g></g><g fill="#ffffff" fill-opacity="1"><g transform="translate(208.936261, 188.078704)"><g/></g></g><g fill="#ffffff" fill-opacity="1"><g transform="translate(222.064945, 188.078704)"><g><path d="M 14.921875 0.144531 L 16.375 0.144531 L 17.878906 -0.046875 L 18.847656 -0.046875 L 20.253906 -0.484375 L 22.238281 -0.824219 L 24.515625 -1.792969 L 27.761719 -3.972656 L 30.136719 -7.023438 L 30.621094 -7.996094 L 31.203125 -8.769531 L 31.976562 -10.660156 L 32.21875 -11.578125 L 32.414062 -12.597656 L 32.703125 -13.421875 L 32.847656 -14.390625 L 32.847656 -15.40625 L 32.996094 -16.957031 L 32.945312 -18.363281 L 32.269531 -22.191406 L 31.636719 -24.03125 L 31.25 -24.953125 L 29.601562 -27.519531 L 27.035156 -30.378906 L 24.5625 -32.027344 L 23.644531 -32.558594 L 22.675781 -32.753906 L 21.851562 -33.140625 L 20.832031 -33.382812 L 17.976562 -33.816406 L 6.929688 -33.914062 L 6.054688 -33.769531 L 5.085938 -33.816406 L 4.019531 -33.382812 L 3.585938 -32.363281 L 3.535156 -5.28125 L 3.632812 -4.359375 L 3.632812 -1.890625 L 4.117188 -0.386719 L 5.085938 0.0976562 L 6.054688 0 L 11.96875 0.0976562 L 12.9375 -0.046875 Z M 14.777344 -7.800781 L 13.855469 -7.898438 L 12.742188 -8.429688 L 12.355469 -9.351562 L 12.304688 -10.175781 L 12.355469 -12.160156 L 12.160156 -14.535156 L 12.355469 -16.957031 L 12.257812 -23.644531 L 12.355469 -24.46875 L 12.839844 -25.582031 L 14.390625 -25.921875 L 16.425781 -25.96875 L 17.828125 -25.824219 L 19.71875 -25.289062 L 20.589844 -24.855469 L 21.316406 -24.320312 L 22.042969 -23.644531 L 22.773438 -22.773438 L 23.257812 -21.949219 L 23.691406 -21.074219 L 24.46875 -16.8125 L 23.984375 -13.421875 L 23.160156 -11.628906 L 21.367188 -9.59375 L 19.71875 -8.527344 L 18.3125 -8.089844 L 16.230469 -7.847656 Z M 14.777344 -7.800781 "/></g></g></g><g fill="#ffffff" fill-opacity="1"><g transform="translate(257.284719, 188.078704)"><g><path d="M 3.488281 -1.40625 L 4.117188 -0.484375 L 5.039062 0.046875 L 15.988281 -0.046875 L 16.859375 0.0976562 L 19.816406 -0.046875 L 22.773438 0.144531 L 23.691406 0.046875 L 24.710938 -0.4375 L 25.144531 -1.355469 L 25.242188 -2.277344 L 25.195312 -5.28125 L 25.289062 -6.203125 L 24.660156 -7.171875 L 23.207031 -7.65625 L 16.8125 -7.753906 L 15.890625 -7.605469 L 14.824219 -7.703125 L 13.761719 -7.605469 L 12.742188 -8.1875 L 12.304688 -9.691406 L 12.355469 -12.0625 L 12.789062 -13.082031 L 13.664062 -13.613281 L 15.550781 -13.613281 L 16.519531 -13.710938 L 19.089844 -13.566406 L 20.398438 -13.664062 L 21.414062 -13.566406 L 22.285156 -13.613281 L 23.257812 -14.148438 L 23.742188 -15.066406 L 23.835938 -18.894531 L 23.742188 -19.863281 L 23.304688 -20.785156 L 22.480469 -21.316406 L 20.542969 -21.367188 L 19.574219 -21.269531 L 18.554688 -21.269531 L 17.441406 -21.367188 L 13.613281 -21.316406 L 12.789062 -21.851562 L 12.210938 -22.722656 L 12.113281 -24.226562 L 12.597656 -25.628906 L 14.097656 -26.066406 L 23.402344 -26.113281 L 24.417969 -26.648438 L 24.953125 -27.519531 L 24.855469 -29.507812 L 24.710938 -30.425781 L 24.757812 -31.492188 L 24.902344 -32.414062 L 24.417969 -33.382812 L 23.402344 -33.816406 L 19.523438 -33.867188 L 18.652344 -33.769531 L 17.683594 -33.914062 L 15.550781 -33.816406 L 14.582031 -33.914062 L 12.695312 -33.867188 L 11.820312 -33.964844 L 5.476562 -33.816406 L 4.070312 -33.480469 L 3.585938 -32.414062 L 3.683594 -30.476562 L 3.488281 -29.070312 L 3.683594 -26.597656 L 3.585938 -25.582031 L 3.683594 -24.710938 L 3.683594 -16.035156 L 3.535156 -15.019531 L 3.683594 -13.128906 L 3.585938 -11.191406 L 3.730469 -10.175781 L 3.632812 -9.109375 L 3.683594 -8.1875 L 3.535156 -7.316406 L 3.632812 -6.203125 L 3.632812 -5.234375 L 3.730469 -3.34375 L 3.683594 -2.375 Z M 3.488281 -1.40625 "/></g></g></g><g fill="#ffffff" fill-opacity="1"><g transform="translate(285.043896, 188.078704)"><g><path d="M 13.664062 -0.871094 L 14.4375 0 L 15.601562 0.4375 L 16.570312 0.53125 L 17.878906 -0.046875 L 18.703125 -0.824219 L 18.992188 -1.746094 L 19.816406 -3.632812 L 20.253906 -4.554688 L 20.738281 -5.378906 L 21.511719 -7.121094 L 21.800781 -7.996094 L 24.710938 -14.195312 L 25.289062 -16.085938 L 26.308594 -17.828125 L 26.839844 -19.671875 L 27.375 -20.640625 L 27.617188 -21.464844 L 27.859375 -22.382812 L 28.535156 -23.257812 L 28.78125 -24.175781 L 29.410156 -24.902344 L 30.136719 -26.792969 L 30.378906 -27.664062 L 30.910156 -28.488281 L 31.25 -29.457031 L 31.734375 -30.378906 L 31.929688 -31.203125 L 32.414062 -32.363281 L 32.121094 -33.574219 L 31.296875 -33.867188 L 25.582031 -33.867188 L 24.46875 -33.480469 L 23.59375 -32.558594 L 23.351562 -31.6875 L 17.585938 -17.492188 L 17.101562 -16.570312 L 16.859375 -15.699219 L 16.277344 -14.824219 L 15.699219 -14.730469 L 15.308594 -15.601562 L 14.679688 -17.441406 L 14.292969 -18.3125 L 14.003906 -19.28125 L 13.664062 -20.058594 L 13.128906 -20.929688 L 12.546875 -22.867188 L 12.113281 -23.644531 L 11.773438 -24.515625 L 11.578125 -25.484375 L 9.882812 -28.972656 L 9.738281 -29.894531 L 9.253906 -30.8125 L 8.914062 -31.6875 L 8.480469 -32.460938 L 7.65625 -33.429688 L 6.539062 -33.816406 L 3.828125 -33.964844 L 3.003906 -33.867188 L 2.132812 -33.964844 L 1.113281 -33.914062 L 0.0976562 -33.480469 L 0 -32.414062 L 0.195312 -31.25 L 0.628906 -30.378906 L 1.355469 -28.535156 L 1.792969 -27.664062 L 2.082031 -26.792969 L 2.617188 -25.871094 L 3.390625 -23.984375 L 3.875 -23.109375 L 5.328125 -19.574219 L 5.8125 -18.796875 L 9.011719 -11.578125 L 9.253906 -10.757812 L 10.078125 -9.011719 L 10.367188 -8.089844 L 11.628906 -5.28125 L 12.113281 -4.554688 L 12.355469 -3.535156 Z M 13.664062 -0.871094 "/></g></g></g></svg>